<?xml version="1.0" encoding="UTF-8" standalone="no"?>
<!-- Created with Inkscape (http://www.inkscape.org/) -->

<svg
   width="0.26458335mm"
   height="10.847917mm"
   viewBox="0 0 0.26458335 10.847917"
   version="1.1"
   id="svg1"
   xmlns="http://www.w3.org/2000/svg"
   xmlns:svg="http://www.w3.org/2000/svg">
  <defs
     id="defs1" />
  <g
     id="layer1"
     transform="translate(-712.5063,311603.6)">
    <path
       d="m 723.69643,-311603.6 c -4.74998,0 -8.70281,3.74 -10.1921,8.04 -1.22526,3.19 -1.03594,6.67 -0.89484,10.03 0.45891,5.07 3.66125,10.34 8.829,11.65 2.3519,0.49 4.7721,0.2 7.15794,0.28 4.53617,0 9.07532,0 13.60953,0 4.99838,-0.45 8.71502,-4.9 9.81323,-9.56 0.68785,-2.77 0.52691,-5.65 0.41136,-8.47 -0.45891,-5.07 -3.66126,-10.34 -8.82902,-11.65 -2.35189,-0.49 -4.7721,-0.2 -7.15794,-0.28 -4.24905,0 -8.49811,0 -12.74716,0 z"
       style="display:inline;stroke-width:2.24865"
       id="path3" />
  </g>
</svg>
