<?xml version="1.0" encoding="UTF-8"?>
<svg id="a" data-name="Layer 1" xmlns="http://www.w3.org/2000/svg" viewBox="0 0 34.808 9.191">
  <path d="M28.057,3.454v2.284c0,.229-.172.413-.386.413h-11.867c-.556,1.32-1.789,2.245-3.226,2.245s-2.67-.925-3.226-2.245H1.599c-.213,0-.386-.185-.386-.413v-2.284c0-.229.172-.413.386-.413h7.754c.556-1.32,1.79-2.245,3.226-2.245s2.67.925,3.226,2.245h11.867c.213,0,.386.185.386.413ZM12.579,2.449c-1.104,0-2.002.963-2.002,2.146s.898,2.146,2.002,2.146,2.001-.963,2.001-2.146-.898-2.146-2.001-2.146Z" style="fill: #231f20;"/>
</svg>